<svg xmlns="http://www.w3.org/2000/svg" width="593.862" height="253.08" viewBox="0 0 593.862 253.08">
  <g id="Group_4" data-name="Group 4" transform="translate(-103.069 -261.254)">
    <path id="Path_1" data-name="Path 1" d="M235.788,405.282v75.657A13.483,13.483,0,0,1,222.323,494.4l-90.4.005a13.482,13.482,0,0,1-13.464-13.463V390.531a13.479,13.479,0,0,1,13.464-13.46l73.728,0V361.69H131.926a28.853,28.853,0,0,0-28.857,28.841v90.408a28.866,28.866,0,0,0,28.857,28.851l90.4-.005a28.855,28.855,0,0,0,28.852-28.846V405.282Z" fill="#0064b0"/>
    <path id="Path_2" data-name="Path 2" d="M325.788,261.254l-69.054.009A22.051,22.051,0,0,0,234.7,283.294v57.78h11.756v-57.78a10.3,10.3,0,0,1,10.28-10.281l69.054-.006a10.3,10.3,0,0,1,10.287,10.287v69.051a10.3,10.3,0,0,1-10.287,10.28l-56.316,0v11.756l56.316-.009a22.042,22.042,0,0,0,22.037-22.031V283.294A22.057,22.057,0,0,0,325.788,261.254Z" fill="#45a535"/>
    <path id="Path_3" data-name="Path 3" d="M265.279,384.725a10.3,10.3,0,0,1-10.3,10.3H226.862a10.306,10.306,0,0,1-10.314-10.3V356.611A10.316,10.316,0,0,1,226.862,346.3h28.119a10.312,10.312,0,0,1,10.3,10.309Z" fill="#0064b0"/>
    <path id="Path_4" data-name="Path 4" d="M205.654,407.821a5.161,5.161,0,0,1-5.157,5.158H186.443a5.156,5.156,0,0,1-5.151-5.158V393.769a5.156,5.156,0,0,1,5.151-5.156H200.5a5.161,5.161,0,0,1,5.157,5.156Z" fill="#89bb2c"/>
    <path id="Path_5" data-name="Path 5" d="M224.253,434.624a2.708,2.708,0,0,1-2.718,2.706h-7.4a2.706,2.706,0,0,1-2.712-2.706v-7.388a2.716,2.716,0,0,1,2.712-2.712h7.4a2.718,2.718,0,0,1,2.718,2.712Z" fill="#0064b0"/>
    <path id="Path_6" data-name="Path 6" d="M219.435,339.381a5.15,5.15,0,0,1-5.151,5.154H200.225a5.151,5.151,0,0,1-5.152-5.154V325.33a5.154,5.154,0,0,1,5.152-5.155h14.059a5.154,5.154,0,0,1,5.151,5.155Z" fill="#45a535"/>
    <path id="Path_7" data-name="Path 7" d="M278.261,321.046a2.163,2.163,0,0,1-2.168,2.168h-5.917A2.167,2.167,0,0,1,268,321.046v-5.909a2.165,2.165,0,0,1,2.173-2.17h5.917a2.161,2.161,0,0,1,2.168,2.17Z" fill="#0064b0"/>
    <path id="Path_8" data-name="Path 8" d="M271.05,412.894a2.171,2.171,0,0,1-2.168,2.167h-5.917a2.175,2.175,0,0,1-2.174-2.167v-5.917a2.177,2.177,0,0,1,2.174-2.173h5.917a2.172,2.172,0,0,1,2.168,2.173Z" fill="#0064b0"/>
    <path id="Path_9" data-name="Path 9" d="M224.883,298.227a.947.947,0,0,1-.943.947h-2.592a.953.953,0,0,1-.959-.947v-2.584a.956.956,0,0,1,.959-.951h2.592a.949.949,0,0,1,.943.951Z" fill="#0064b0"/>
    <path id="Path_10" data-name="Path 10" d="M293.171,397.771a.956.956,0,0,1-.959.945h-2.581a.953.953,0,0,1-.948-.945v-2.59a.952.952,0,0,1,.948-.955h2.581a.954.954,0,0,1,.959.955Z" fill="#0064b0"/>
    <path id="Path_11" data-name="Path 11" d="M192.662,353.525a.941.941,0,0,1-.942.948h-2.581a.952.952,0,0,1-.959-.948v-2.586a.955.955,0,0,1,.959-.955h2.581a.945.945,0,0,1,.942.955Z" fill="#0064b0"/>
    <path id="Path_12" data-name="Path 12" d="M185.451,319.866a.946.946,0,0,1-.936.944h-2.6a.944.944,0,0,1-.947-.944v-2.587a.95.95,0,0,1,.947-.954h2.6a.953.953,0,0,1,.936.954Z" fill="#0064b0"/>
    <path id="Path_13" data-name="Path 13" d="M285.948,354.861a2.979,2.979,0,0,1-2.984,2.979h-8.136a2.969,2.969,0,0,1-2.968-2.979v-8.144a2.968,2.968,0,0,1,2.968-2.977h8.136a2.977,2.977,0,0,1,2.984,2.977Z" fill="#89bb2c"/>
    <g id="Group_1" data-name="Group 1">
      <path id="Path_14" data-name="Path 14" d="M257.393,479.476v-2.611h.51a4.085,4.085,0,0,0,3.944-2.156c.754-1.436,1.134-4.137,1.134-8.085V430.607q0-5.975-1.157-8.09a4.238,4.238,0,0,0-4.091-2.105h-.34v-2.643h31.1q14.723,0,23.3,8.209t8.573,22.3q0,14.46-8.7,22.83t-23.813,8.371Zm13.1-2.611h16.261a22.327,22.327,0,0,0,17.555-8.278q7.139-8.28,7.148-20.227a31.454,31.454,0,0,0-3.37-14.28,25.216,25.216,0,0,0-8.834-10.213,20.6,20.6,0,0,0-6.724-2.627,46.47,46.47,0,0,0-9.452-.828H270.493Z" fill="#0065b0"/>
      <path id="Path_15" data-name="Path 15" d="M345.851,417.769v2.643h-.386a4.317,4.317,0,0,0-4.136,2.151q-1.193,2.16-1.2,8.044v36.017c0,3.948.4,6.649,1.2,8.085a4.332,4.332,0,0,0,4.136,2.156h.386v2.611h-18.9v-2.611h.335a4.351,4.351,0,0,0,4.164-2.156c.777-1.436,1.175-4.137,1.175-8.085V430.607c0-3.926-.4-6.6-1.175-8.044a4.336,4.336,0,0,0-4.164-2.151h-.335v-2.643Z" fill="#0065b0"/>
      <path id="Path_16" data-name="Path 16" d="M412.721,466.794a40.16,40.16,0,0,1-13.01,10.049,35.508,35.508,0,0,1-15.416,3.392q-13.853,0-22.654-8.738-8.784-8.765-8.794-22.627,0-13.83,8.737-22.847T383.62,417a44.054,44.054,0,0,1,9.39,1.293,42.556,42.556,0,0,0,8.062,1.306,15.791,15.791,0,0,0,3.348-.364,21.24,21.24,0,0,0,3.563-1.134v14.513H405.34a26.747,26.747,0,0,0-8.965-9.76,21.479,21.479,0,0,0-11.733-3.51,20.033,20.033,0,0,0-16.369,8.079q-6.417,8.091-6.422,20.85a33.684,33.684,0,0,0,1.566,10.151,31.294,31.294,0,0,0,4.453,9.05,24.122,24.122,0,0,0,8.238,7.494,21.482,21.482,0,0,0,10.361,2.576,18.725,18.725,0,0,0,8.969-2.134,14.019,14.019,0,0,0,5.98-5.8,8.528,8.528,0,0,0,.806-2.65,31.588,31.588,0,0,0,.255-4.528v-6.4c0-2.734-.34-4.63-1.008-5.724A3.764,3.764,0,0,0,398,448.7h-.6V446.1H414.56V448.7H414a3.346,3.346,0,0,0-3.177,1.618c-.612,1.094-.924,2.99-.924,5.724V460.3a9.209,9.209,0,0,0,.7,3.614A8.066,8.066,0,0,0,412.721,466.794Z" fill="#0065b0"/>
      <path id="Path_17" data-name="Path 17" d="M438.5,417.769v2.643h-.386a4.322,4.322,0,0,0-4.131,2.151q-1.2,2.16-1.2,8.044v36.017c0,3.948.4,6.649,1.2,8.085a4.337,4.337,0,0,0,4.131,2.156h.386v2.611H419.585v-2.611h.352a4.333,4.333,0,0,0,4.154-2.156c.783-1.436,1.179-4.137,1.179-8.085V430.607q0-5.889-1.179-8.044a4.318,4.318,0,0,0-4.154-2.151h-.352v-2.643Z" fill="#0065b0"/>
      <path id="Path_18" data-name="Path 18" d="M446.6,463.3h2.73q2.434,6.135,9.644,10.2a31.452,31.452,0,0,0,15.711,4.051q8.451,0,13.605-3.9a12.194,12.194,0,0,0,5.176-10.179,10.077,10.077,0,0,0-4.551-8.983q-4.545-3-16.545-4.289-14.791-1.657-20.578-5.434T446,433.512a14.563,14.563,0,0,1,5.8-11.914q5.814-4.606,15.149-4.6a58.648,58.648,0,0,1,12.063,1.464,56.073,56.073,0,0,0,8.934,1.475,16.587,16.587,0,0,0,4.188-.58,31.482,31.482,0,0,0,4.994-1.848v14.768h-2.69q-2.952-5.642-9.907-9.163a33.287,33.287,0,0,0-15.272-3.517q-7.389,0-11.479,2.916a9.471,9.471,0,0,0-4.1,8.175,8.39,8.39,0,0,0,1.113,4.2,8.247,8.247,0,0,0,2.983,3.136q4.348,2.649,14.383,3.416c1.361.114,2.394.2,3.108.255q12.9,1.2,19.422,5.872a14.843,14.843,0,0,1,6.53,12.733,17.691,17.691,0,0,1-6.916,14.281q-6.91,5.642-17.7,5.65a52.234,52.234,0,0,1-12.527-1.8c-4.777-1.191-7.823-1.792-9.157-1.792a17.72,17.72,0,0,0-4.335.522,16.228,16.228,0,0,0-3.989,1.622Z" fill="#0065b0"/>
      <path id="Path_19" data-name="Path 19" d="M541.592,417q14.69,0,23.989,8.635t9.3,22.3q0,14.162-9.366,23.228t-23.927,9.072q-14.673,0-24.023-8.64-9.334-8.649-9.339-22.293,0-14.127,9.379-23.216T541.592,417Zm24.369,31.358q0-12.5-6.872-20.634a22.667,22.667,0,0,0-34.948.209q-7,8.349-6.991,20.935,0,12.479,6.91,20.608a22.64,22.64,0,0,0,34.951-.187Q565.956,460.941,565.961,448.36Z" fill="#0065b0"/>
      <path id="Path_20" data-name="Path 20" d="M581.8,479.476v-2.611h.334a4.345,4.345,0,0,0,4.165-2.156c.776-1.436,1.175-4.137,1.175-8.085V430.607c0-3.892-.387-6.576-1.158-8.022a4.145,4.145,0,0,0-4.012-2.173h-.5v-2.643h52.356V431.5h-2.65q-2.085-5.932-5.8-8.511t-10.07-2.581H595.281V444.6h7.683q6.739,0,9.832-1.788a6.268,6.268,0,0,0,3.178-5.718h2.6v17.621h-2.6a6.265,6.265,0,0,0-3.2-5.695q-3.115-1.814-9.81-1.81h-7.683v19.415c0,3.948.387,6.649,1.175,8.085a4.292,4.292,0,0,0,4.114,2.156h.385v2.611Z" fill="#0065b0"/>
      <path id="Path_21" data-name="Path 21" d="M670.815,466.624c0,3.948.4,6.649,1.192,8.085a4.351,4.351,0,0,0,4.137,2.156h.39v2.611H657.618v-2.611h.347a4.344,4.344,0,0,0,4.164-2.156c.783-1.436,1.175-4.137,1.175-8.085V420.412h-6.02q-6.349,0-10.026,2.581c-2.456,1.713-4.38,4.556-5.81,8.511h-2.6V417.769h56.459V431.5h-2.657c-1.395-3.955-3.306-6.8-5.775-8.511-2.451-1.724-5.8-2.581-10-2.581h-6.059Z" fill="#0065b0"/>
    </g>
    <g id="Group_2" data-name="Group 2">
      <path id="Path_22" data-name="Path 22" d="M358.26,492.944h.544v7.325h-.544a14.044,14.044,0,0,0-2.179-4.136,8.715,8.715,0,0,0-2.219-1.822,12.04,12.04,0,0,0-3-1.243,12.853,12.853,0,0,0-3.359-.447,6.914,6.914,0,0,0-2.258.346,4.422,4.422,0,0,0-1.685,1.05,3.928,3.928,0,0,0-.789,1.1,2.664,2.664,0,0,0-.283,1.179,2.453,2.453,0,0,0,.822,1.845,4.187,4.187,0,0,0,1.1.737,11.209,11.209,0,0,0,1.832.687c.749.221,1.793.5,3.15.822a7.7,7.7,0,0,0,.743.205l.749.175,1.2.312a33.28,33.28,0,0,1,4.42,1.38,7.449,7.449,0,0,1,2.366,1.57,5.1,5.1,0,0,1,1.181,1.675,5.182,5.182,0,0,1,.419,2.082,5.457,5.457,0,0,1-.477,2.207,5.706,5.706,0,0,1-1.339,1.952,6.926,6.926,0,0,1-2.791,1.735,11.152,11.152,0,0,1-3.779.592,12.555,12.555,0,0,1-2.791-.3,19.676,19.676,0,0,1-3.188-1.1c-.818-.323-1.436-.54-1.862-.664a4.753,4.753,0,0,0-1.214-.164,2.928,2.928,0,0,0-1.843.571,2.7,2.7,0,0,0-1,1.623h-.528v-9.877h.528a9.027,9.027,0,0,0,2.122,4.772,12.36,12.36,0,0,0,2.78,2.332,15.529,15.529,0,0,0,3.54,1.673,11.565,11.565,0,0,0,3.512.6,7.341,7.341,0,0,0,2.713-.487,4.5,4.5,0,0,0,1.917-1.367,3.091,3.091,0,0,0,.68-1.969,2.874,2.874,0,0,0-.929-2.1,4.621,4.621,0,0,0-1.1-.758,11.659,11.659,0,0,0-1.76-.722c-.72-.243-1.7-.533-2.961-.867l-1.532-.421c-2.377-.641-4.034-1.141-4.953-1.492a12.889,12.889,0,0,1-2.417-1.14,5.685,5.685,0,0,1-1.515-1.431,4.32,4.32,0,0,1-.953-2.683,5.178,5.178,0,0,1,1.055-3.2,6.847,6.847,0,0,1,2.956-2.206,10.732,10.732,0,0,1,4.2-.794,15.792,15.792,0,0,1,7.233,1.939,4.916,4.916,0,0,0,1.789.658Q357.749,494.7,358.26,492.944Z" fill="#47a836"/>
      <path id="Path_23" data-name="Path 23" d="M385.191,492.1a15.145,15.145,0,0,1,5.481.953,12.091,12.091,0,0,1,4.313,2.79,11.417,11.417,0,0,1,2.389,3.478,9.751,9.751,0,0,1-.857,9.475,12.21,12.21,0,0,1-4.63,4.017,14.031,14.031,0,0,1-6.417,1.476,14.7,14.7,0,0,1-5.009-.84,13.292,13.292,0,0,1-4.137-2.367,11.006,11.006,0,0,1-2.791-3.592,9.676,9.676,0,0,1,.736-9.814A12.235,12.235,0,0,1,378.9,493.6,13.4,13.4,0,0,1,385.191,492.1Zm.393.544a7.242,7.242,0,0,0-2.616.487A5.694,5.694,0,0,0,380.9,494.5a9.252,9.252,0,0,0-1.578,2.281,13.122,13.122,0,0,0-.976,2.955,17.608,17.608,0,0,0-.334,3.518,16.49,16.49,0,0,0,.533,4.285,10.456,10.456,0,0,0,1.493,3.328,6.637,6.637,0,0,0,2.343,2.128,6.2,6.2,0,0,0,3.018.738,6.292,6.292,0,0,0,3.943-1.292,8.186,8.186,0,0,0,2.565-3.694,16.234,16.234,0,0,0,.89-5.708,15.8,15.8,0,0,0-.483-3.995,11.276,11.276,0,0,0-1.4-3.256,7.527,7.527,0,0,0-2.218-2.19,6.05,6.05,0,0,0-1.486-.688A5.652,5.652,0,0,0,385.584,492.644Z" fill="#47a836"/>
      <path id="Path_24" data-name="Path 24" d="M410.008,492.535h14.565v.563h-1.537a3.367,3.367,0,0,0-3.864,3.88v16.339h5.52a6.869,6.869,0,0,0,3.1-.718,7.746,7.746,0,0,0,2.523-2.034c.427-.544.8-1.081,1.13-1.6a12.963,12.963,0,0,0,.93-1.929,26.927,26.927,0,0,0,.869-2.6h.567v9.453h-23.8l-.033-.57h.794q3.88,0,3.886-3.913V496.978c0-2.593-1.3-3.88-3.886-3.88h-.761Z" fill="#47a836"/>
      <path id="Path_25" data-name="Path 25" d="M444.873,492.535h14.808v.563h-1.7a4,4,0,0,0-2.922.953,3.952,3.952,0,0,0-.96,2.927v10.836a5.736,5.736,0,0,0,.857,3.179,5.433,5.433,0,0,0,2.451,2.048,9.331,9.331,0,0,0,3.831.721,11.156,11.156,0,0,0,3.619-.57,6.461,6.461,0,0,0,2.678-1.525,7.143,7.143,0,0,0,1.816-5.225V498.8c0-2.447-.71-4.115-2.138-4.989a3.994,3.994,0,0,0-1.289-.533,10.534,10.534,0,0,0-1.935-.18v-.563h10.359v.563a7.129,7.129,0,0,0-1.525.254,4.284,4.284,0,0,0-1.162.608,4.238,4.238,0,0,0-1.329,1.759,6.655,6.655,0,0,0-.447,2.581v8.51A6.9,6.9,0,0,1,468.026,512a6.49,6.49,0,0,1-2.183,1.417,16.809,16.809,0,0,1-5.833.92,18.985,18.985,0,0,1-4.51-.5,10.129,10.129,0,0,1-3.371-1.385,5.678,5.678,0,0,1-2.513-4.959V496.978c0-2.593-1.281-3.88-3.881-3.88h-.862Z" fill="#47a836"/>
      <path id="Path_26" data-name="Path 26" d="M484.878,492.535h25.038v10.826l-.487.029a14.174,14.174,0,0,0-2.441-6.979,7.42,7.42,0,0,0-6.207-3.313h-1.123V509.4q0,3.878,3.875,3.881h3.228v.6H488.106v-.6h3.2c2.582,0,3.886-1.3,3.886-3.881V493.1h-1.379a7.173,7.173,0,0,0-6.207,3.58,13.1,13.1,0,0,0-1.788,4.175,22.313,22.313,0,0,0-.4,2.508h-.533Z" fill="#47a836"/>
      <path id="Path_27" data-name="Path 27" d="M521.6,513.285h.6a3.384,3.384,0,0,0,3.875-3.881V496.5a6.27,6.27,0,0,0-.363-1.6,2.533,2.533,0,0,0-.754-.993,4.051,4.051,0,0,0-2.758-.811h-.6v-.563h13.469v.563h-.607a3.363,3.363,0,0,0-3.864,3.88V509.4a3.388,3.388,0,0,0,3.864,3.881h.607v.6H521.6Z" fill="#47a836"/>
      <path id="Path_28" data-name="Path 28" d="M560.1,492.1a15.2,15.2,0,0,1,5.481.953,12.2,12.2,0,0,1,4.317,2.79,11.838,11.838,0,0,1,2.383,3.478,9.7,9.7,0,0,1,.84,3.932,9.821,9.821,0,0,1-1.7,5.543,12.255,12.255,0,0,1-4.63,4.017,14.041,14.041,0,0,1-6.423,1.476,14.609,14.609,0,0,1-4.993-.84,12.984,12.984,0,0,1-4.142-2.367,10.923,10.923,0,0,1-2.786-3.592,9.537,9.537,0,0,1-1.009-4.282,9.737,9.737,0,0,1,1.73-5.532,12.318,12.318,0,0,1,4.63-4.074A13.455,13.455,0,0,1,560.1,492.1Zm.4.544a7.243,7.243,0,0,0-2.628.487,5.668,5.668,0,0,0-2.071,1.368,9.033,9.033,0,0,0-1.566,2.281,11.657,11.657,0,0,0-.975,2.955,17.11,17.11,0,0,0-.334,3.518,16.516,16.516,0,0,0,.515,4.285,11.034,11.034,0,0,0,1.492,3.328,6.923,6.923,0,0,0,2.348,2.128,6.614,6.614,0,0,0,6.963-.554,8.184,8.184,0,0,0,2.569-3.694,16.325,16.325,0,0,0,.891-5.708,15.89,15.89,0,0,0-.486-3.995,10.865,10.865,0,0,0-1.409-3.256,7.273,7.273,0,0,0-2.217-2.19,5.727,5.727,0,0,0-1.482-.688A5.656,5.656,0,0,0,560.509,492.644Z" fill="#47a836"/>
      <path id="Path_29" data-name="Path 29" d="M585.239,492.535h8.585l14.831,15.37v-9.2a7.076,7.076,0,0,0-.573-2.944,4.139,4.139,0,0,0-1.656-1.918,3.843,3.843,0,0,0-1.164-.523,9.419,9.419,0,0,0-1.651-.226v-.563h10.574v.563h-.208a4.252,4.252,0,0,0-3.507,1.463,6.53,6.53,0,0,0-1.213,4.267v15.267h-.506l-18.434-18.939v12.683a8.3,8.3,0,0,0,.432,2.965,3.627,3.627,0,0,0,1.451,1.732,4.9,4.9,0,0,0,1.969.635,15.449,15.449,0,0,0,1.839.146v.57H584.853v-.57a7.292,7.292,0,0,0,2.8-.606,3.277,3.277,0,0,0,1.589-1.52,5.468,5.468,0,0,0,.511-2.5V496.6a3.382,3.382,0,0,0-.505-1.882,3.112,3.112,0,0,0-1.43-1.2,5.663,5.663,0,0,0-2.3-.42h-.279Z" fill="#47a836"/>
    </g>
    <path id="Shape_1" data-name="Shape 1" d="M256.224,497.722h77.889v4.356H256.224Z" fill="#47a836"/>
    <path id="Shape_1_copy" data-name="Shape 1 copy" d="M619.038,497.722h77.893v4.356H619.038Z" fill="#47a836"/>
  </g>
</svg>
